{"title":"The.Purge.2013.WEBRip.R6.XViD.AC3 - W00D","uid":8597549,"size":743857875,"categoryP":"video","categoryS":"movies","magnet":"?xt=urn:btih:9e74001cc409c5bebe7cc0ce3bb600b335ff4fc7&amp;dn=The.Purge.2013.WEBRip.R6.XViD.AC3+-+W00D&amp;tr=udp%3A%2F%2Ftracker.openbittorrent.com%3A80&amp;tr=udp%3A%2F%2Fopen.demonii.com%3A1337&amp;tr=udp%3A%2F%2Ftracker.coppersurfer.tk%3A6969&amp;tr=udp%3A%2F%2Fexodus.desync.com%3A6969","seeders":24,"leechers":3,"uploader":"xxxlavalxxx","files":-1,"time":1371793813,"description":" &lt;a href=&quot;\nhttp://www.imdb.com/title/tt2184339/&quot; rel=&quot;nofollow&quot; target=&quot;_NEW&quot;&gt;\nhttp://www.imdb.com/title/tt2184339/&lt;/a&gt;\n\n\nA family is held hostage for harboring the target of a murderous syndicate during the Purge, a 12-hour period in which any and all crime is legalized. \n\n\n\nDirector:\n James DeMonaco \n\nWriter:\n James DeMonaco \n\nStars:\n Ethan Hawke, Lena Headey, Max Burkholder \n\nGenres:\n  Horror |  Sci-Fi |  Thriller \n\n\n\n\n\n\nGeneral Information\n Sample Included......: Yes\n Source...............: RMVB Chinese Low Bitrate\n Container............: AVi\n\n\nQuote:\n\nVideo\n ID                                       : 0\n Format                                   : MPEG-4 Visual\n Format profile                           : Advanced Simple@L5\n Format settings, BVOP                    : 2\n Format settings, QPel                    : No\n Format settings, GMC                     : No warppoints\n Format settings, Matrix                  : Default (H.263)\n Codec ID                                 : XVID\n Codec ID/Hint                            : XviD\n Duration                                 : 1h 25mn\n Bit rate                                 : 1 002 Kbps\n Width                                    : 704 pixels\n Height                                   : 304 pixels\n Display aspect ratio                     : 2.35:1\n Frame rate                               : 23.976 fps\n Color space                              : YUV\n Chroma subsampling                       : 4:2:0\n Bit depth                                : 8 bits\n Scan type                                : Progressive\n Compression mode                         : Lossy\n Bits/(Pixel*Frame)                       : 0.195\n Stream size                              : 611 MiB (88%)\n Writing library                          : XviD 1.2.1 (UTC 2008-12-04)\n\n Audio\n ID                                       : 1\n Format                                   : AC-3\n Format/Info                              : Audio Coding 3\n Mode extension                           : CM (complete main)\n Format settings, Endianness              : Big\n Codec ID                                 : 2000\n Duration                                 : 1h 25mn\n Bit rate mode                            : Constant\n Bit rate                                 : 128 Kbps\n Channel(s)                               : 2 channels\n Channel positions                        : Front: L R\n Sampling rate                            : 48.0 KHz\n Bit depth                                : 16 bits\n Compression mode                         : Lossy\n Stream size                              : 78.1 MiB (11%)\n Alignment                                : Aligned on interleaves\n Interleave, duration                     : 64 ms (1.53 video frames)\n Interleave, preload duration             : 192 ms\n Title                                    : The Purge 2013 R6 webrip \n\n\n\n//bayimg.com/baNMfAaEf\n//bayimg.com/BAnMGaaEF\n//bayimg.com/bANmiaAeF\n\n\n","torrent":{"xt":"urn:btih:9e74001cc409c5bebe7cc0ce3bb600b335ff4fc7","amp;dn":"The.Purge.2013.WEBRip.R6.XViD.AC3+-+W00D","amp;tr":["udp%3A%2F%2Ftracker.openbittorrent.com%3A80","udp%3A%2F%2Fopen.demonii.com%3A1337","udp%3A%2F%2Ftracker.coppersurfer.tk%3A6969","udp%3A%2F%2Fexodus.desync.com%3A6969"],"infoHash":"9e74001cc409c5bebe7cc0ce3bb600b335ff4fc7","infoHashBuffer":{"type":"Buffer","data":[158,116,0,28,196,9,197,190,190,124,192,206,59,182,0,179,53,255,79,199]},"announce":[],"urlList":[]}}